<svg xmlns="http://www.w3.org/2000/svg" width="53.834" height="53.834" viewBox="0 0 53.834 53.834">
  <path id="shape_2_" data-name="shape (2)" d="M26.915,53.834A26.917,26.917,0,1,0,0,26.918,26.917,26.917,0,0,0,26.915,53.834Zm-14.6-27.5L38.267,16.327c1.2-.436,2.256.3,1.866,2.115h0L35.717,39.258c-.328,1.477-1.205,1.835-2.432,1.141l-6.729-4.96L23.31,38.566a1.7,1.7,0,0,1-1.358.661l.478-6.848L34.9,21.112c.544-.478-.121-.747-.836-.272l-15.411,9.7L12.01,28.469c-1.442-.458-1.473-1.442.3-2.138Z" fill="#454545"/>
</svg>
