<svg xmlns="http://www.w3.org/2000/svg" width="53.834" height="53.83" viewBox="0 0 53.834 53.83">
  <path id="shape_1_" data-name="shape (1)" d="M26.917.006A26.915,26.915,0,1,0,53.834,26.921,26.92,26.92,0,0,0,26.917.006ZM39.281,21.452c.013.265.018.529.018.8,0,8.123-6.084,17.49-17.21,17.492a16.921,16.921,0,0,1-9.271-2.762,12.065,12.065,0,0,0,8.954-2.547,6.067,6.067,0,0,1-5.65-4.27,5.886,5.886,0,0,0,1.137.112,6,6,0,0,0,1.595-.216A6.125,6.125,0,0,1,14,24.029V23.95a5.926,5.926,0,0,0,2.74.769,6.219,6.219,0,0,1-1.873-8.207,17.078,17.078,0,0,0,12.466,6.422,6.293,6.293,0,0,1-.156-1.4,6.1,6.1,0,0,1,6.05-6.147,6,6,0,0,1,4.414,1.942,12.048,12.048,0,0,0,3.84-1.493,6.149,6.149,0,0,1-2.66,3.4A11.934,11.934,0,0,0,42.3,18.27a12.376,12.376,0,0,1-3.017,3.182Z" transform="translate(0 -0.006)" fill="#454545"/>
</svg>
