<svg xmlns="http://www.w3.org/2000/svg" width="53.83" height="53.83" viewBox="0 0 53.83 53.83">
  <path id="Whats_app" data-name="Whats app" d="M26.921,0h-.013A26.9,26.9,0,0,0,5.124,42.691l-3.355,10,10.346-3.307A26.911,26.911,0,1,0,26.921,0ZM42.583,38.008c-.65,1.833-3.227,3.354-5.283,3.8-1.406.3-3.243.538-9.427-2.025-7.909-3.277-13-11.315-13.4-11.836-.381-.522-3.2-4.255-3.2-8.118a8.59,8.59,0,0,1,2.752-6.549,3.906,3.906,0,0,1,2.752-.966c.333,0,.633.017.9.029.791.035,1.188.081,1.708,1.329.65,1.565,2.23,5.427,2.42,5.824a1.6,1.6,0,0,1,.115,1.457,4.7,4.7,0,0,1-.872,1.234c-.4.458-.775.807-1.171,1.3-.364.427-.774.884-.317,1.675a23.888,23.888,0,0,0,4.367,5.427,19.792,19.792,0,0,0,6.312,3.892,1.7,1.7,0,0,0,1.9-.3,32.2,32.2,0,0,0,2.1-2.785,1.5,1.5,0,0,1,1.933-.586c.727.252,4.572,2.153,5.362,2.547s1.312.586,1.5.919a6.7,6.7,0,0,1-.461,3.735Z" fill="#454545"/>
</svg>
